<?xml version="1.0" encoding="UTF-8" standalone="no"?><!DOCTYPE svg PUBLIC "-//W3C//DTD SVG 1.1//EN" "http://www.w3.org/Graphics/SVG/1.1/DTD/svg11.dtd"><svg width="100%" height="100%" viewBox="0 0 2363 2363" version="1.1" xmlns="http://www.w3.org/2000/svg" xmlns:xlink="http://www.w3.org/1999/xlink" xml:space="preserve" xmlns:serif="http://www.serif.com/" style="fill-rule:evenodd;clip-rule:evenodd;stroke-linecap:round;stroke-linejoin:round;stroke-miterlimit:1.5;"><path d="M1093.374,1626.79c0,0 217.265,220.086 287.805,177.762c70.54,-42.324 304.735,-121.33 231.373,-313.2" style="fill:none;stroke:#000;stroke-width:40.42px;"/><path d="M1031.298,997.569c0,0 -208.8,-208.345 -352.702,38.319c-143.903,246.664 169.297,280.524 169.297,280.524c0,0 273.697,-110.043 183.405,-318.843Z" style="fill:none;stroke:#000;stroke-width:40.42px;"/><path d="M1409.395,746.445c0,0 -304.735,174.558 -39.502,369.441c265.232,194.883 352.702,-58.608 349.881,-79.998c-2.821,-21.39 -104.4,-407.951 -310.378,-289.443Z" style="fill:none;stroke:#000;stroke-width:40.42px;"/><ellipse cx="729.385" cy="1086.773" rx="56.432" ry="50.885" style="stroke:#000;stroke-width:40.42px;"/><ellipse cx="1556.12" cy="852.578" rx="56.432" ry="50.885" style="stroke:#000;stroke-width:40.42px;"/><path d="M802.747,1973.849c0,0 -414.778,-253.946 -366.811,-660.259c47.967,-406.313 132.616,-476.854 132.616,-476.854c0,0 569.967,-911.383 1106.075,-135.438c536.108,775.945 62.076,1249.977 62.076,1249.977" style="fill:none;stroke:#000;stroke-width:40.42px;"/></svg>